<svg width="144" height="144" viewBox="0 0 144 144" fill="none" xmlns="http://www.w3.org/2000/svg">
<path d="M82.6514 118.796V110.537C91.2657 108.051 98.3037 103.277 103.765 96.217C109.227 89.1568 111.958 81.142 111.958 72.1724C111.958 63.2029 109.249 55.1658 103.832 48.0612C98.4147 40.9567 91.3545 36.2055 82.6514 33.8077V25.5486C93.6635 28.0352 102.633 33.6078 109.56 42.2666C116.487 50.9253 119.95 60.8939 119.95 72.1724C119.95 83.451 116.487 93.4196 109.56 102.078C102.633 110.737 93.6635 116.31 82.6514 118.796ZM24.0386 88.2909V56.3203H45.3523L71.9945 29.6781V114.933L45.3523 88.2909H24.0386ZM79.9872 94.6851V49.793C84.8716 51.3027 88.7569 54.1445 91.6432 58.3185C94.5294 62.4924 95.9725 67.1548 95.9725 72.3056C95.9725 77.3676 94.5072 81.9856 91.5765 86.1596C88.6459 90.3335 84.7828 93.1754 79.9872 94.6851ZM64.0019 49.9262L48.949 64.313H32.0312V80.2983H48.949L64.0019 94.8183V49.9262Z" fill="#F97316"/>
</svg>
