<svg width="144" height="144" viewBox="0 0 144 144" fill="none" xmlns="http://www.w3.org/2000/svg">
<path d="M6.46436 55.0005H24.1321L24.2919 55.0126L24.4517 55.0327L24.6115 55.0608L24.7713 55.0969L24.9311 55.141L25.0909 55.193L25.2507 55.2529L25.4105 55.3205L25.5703 55.396L25.7301 55.4791L25.8898 55.5699L26.0496 55.6681L26.2094 55.7739L26.3692 55.887L26.529 56.0073L26.6888 56.1347L26.8486 56.2692L27.0084 56.4106L27.1682 56.5588L27.328 56.7136L27.4878 56.8749L27.6476 57.0426L27.8074 57.2165L27.9672 57.3964L28.127 57.5823L28.2868 57.7738L28.4466 57.9709L28.6063 58.1734L28.7661 58.3811L28.9259 58.5937L29.0857 58.8112L29.2455 59.0333L29.4053 59.2598L29.5651 59.4905L29.7249 59.7253L29.8847 59.9638L30.0445 60.2059L30.2043 60.4514L30.3641 60.7L30.5239 60.9515L30.6837 61.2057L30.8435 61.4624L31.0033 61.7213L31.1631 61.9822L31.3228 62.2449L31.4826 62.5091L31.6424 62.7746L31.8022 63.0411L31.962 63.3084L32.1218 63.5763L32.2816 63.8446L32.4414 64.1129L32.6012 64.3811L32.761 64.6489L32.9208 64.916L33.0806 65.1823L33.2404 65.4474L33.4002 65.7112L33.56 65.9734L33.7198 66.2338L33.8796 66.4921L34.0393 66.7481L34.1991 67.0016L34.3589 67.2523L34.5187 67.5L34.6785 67.7446L34.8383 67.9857L34.9981 68.2232L35.1579 68.4568L35.3177 68.6864L35.4775 68.9117L35.6373 69.1325L35.7971 69.3487L35.9569 69.56L36.1167 69.7662L36.2765 69.9672L36.4363 70.1627L36.596 70.3527L36.7558 70.5369L36.9156 70.7151L37.0754 70.8873L37.2352 71.0532L37.395 71.2127L37.5548 71.3657L37.7146 71.512L37.8744 71.6515L38.0342 71.784L38.194 71.9095L38.3538 72.0278L38.5136 72.1388L38.6734 72.2424L38.8332 72.3386L38.993 72.4273L39.1528 72.5082L39.3125 72.5815L39.4723 72.647L39.6321 72.7047L39.7919 72.7545L39.9517 72.7963L40.1115 72.8302L40.2713 72.8561L40.4311 72.8739L40.5909 72.8837L40.7507 72.8855L40.9105 72.8792L41.0703 72.8649L41.2301 72.8425L41.3899 72.8122L41.5497 72.7738L41.7095 72.7275L41.8693 72.6733L42.0291 72.6113L42.1888 72.5414L42.3486 72.4638L42.5084 72.3785L42.6682 72.2856L42.828 72.1853L42.9878 72.0775L43.1476 71.9624L43.3074 71.84L43.4672 71.7106L43.627 71.5741L43.7868 71.4308L43.9466 71.2808L44.1064 71.1241L44.2662 70.961L44.426 70.7916L44.5858 70.616L44.7456 70.4344L44.9053 70.2469L45.0651 70.0538L45.2249 69.8552L45.3847 69.6512L45.5445 69.4421L45.7043 69.2281L45.8641 69.0093L46.0239 68.786L46.1837 68.5582L46.3435 68.3264L46.5033 68.0906L46.6631 67.851L46.8229 67.6079L46.9827 67.3616L47.1425 67.1121L47.3023 66.8598L47.4621 66.6049L47.6218 66.3476L47.7816 66.0881L47.9414 65.8266L48.1012 65.5635L48.261 65.2989L48.4208 65.0331L48.5806 64.7664L48.7404 64.4988L48.9002 64.2308L49.06 63.9625L49.2198 63.6942L49.3796 63.4261L49.5394 63.1585L49.6992 62.8916L49.859 62.6256L50.0188 62.3608L50.1786 62.0975L50.3383 61.8357L50.4981 61.5759L50.6579 61.3182L50.8177 61.0629L50.9775 60.8102L51.1373 60.5603L51.2971 60.3134L51.4569 60.0698L51.6167 59.8297L51.7765 59.5932L51.9363 59.3607L52.0961 59.1323L52.2559 58.9083L52.4157 58.6887L52.5755 58.4739L52.7353 58.264L52.895 58.0593L53.0548 57.8598L53.2146 57.6658L53.3744 57.4774L53.5342 57.2948L53.694 57.1183L53.8538 56.9479L54.0136 56.7837L54.1734 56.626L54.3332 56.4749L54.493 56.3305L54.6528 56.193L54.8126 56.0624L54.9724 55.9389L55.1322 55.8227L55.292 55.7137L55.4518 55.6121L55.6116 55.5181L55.7713 55.4316L55.9311 55.3527L56.0909 55.2816L56.2507 55.2183L56.4105 55.1629L56.5703 55.1153L56.7301 55.0757L56.8899 55.0441L57.0497 55.0204L57.2095 55.0048L91.2281 54.987L91.5652 55.0648L91.725 55.1018L91.8848 55.1469L92.0446 55.1998L92.2044 55.2606L92.3642 55.3293L92.524 55.4056L92.6838 55.4897L92.8436 55.5814L93.0034 55.6805L93.1632 55.7872L93.323 55.9011L93.4827 56.0223L93.6425 56.1506L93.8023 56.286L93.9621 56.4282L94.1219 56.5772L94.2817 56.7328L94.4415 56.8949L94.6013 57.0633L94.7611 57.238L94.9209 57.4186L95.0807 57.6051L95.2405 57.7974L95.4003 57.9951L95.5601 58.1982L95.7199 58.4065L95.8797 58.6198L96.0394 58.8378L96.1992 59.0605L96.359 59.2875L96.5188 59.5187L96.6786 59.7539L96.8384 59.9929L96.9982 60.2354L97.158 60.4813L97.3178 60.7303L97.4776 60.9821L97.6374 61.2366L97.7972 61.4936L97.957 61.7528L98.1168 62.0139L98.2766 62.2768L98.4364 62.5411L98.5962 62.8067L98.756 63.0734L98.9157 63.3408L99.0755 63.6088L99.2353 63.877L99.3951 64.1454L99.5549 64.4135L99.7147 64.6812L99.8745 64.9483L100.034 65.2144L100.194 65.4794L100.354 65.743L100.514 66.005L100.673 66.2651L100.833 66.5232L100.993 66.7789L101.153 67.032L101.313 67.2824L101.472 67.5298L101.632 67.7739L101.792 68.0146L101.952 68.2517L102.112 68.4848L102.271 68.7139L102.431 68.9386L102.591 69.1589L102.751 69.3745L102.911 69.5852L103.07 69.7908L103.23 69.9911L103.39 70.186L103.55 70.3753L103.71 70.5588L103.869 70.7363L104.029 70.9077L104.189 71.0729L104.349 71.2316L104.509 71.3838L104.668 71.5292L104.828 71.6679L104.988 71.7995L105.148 71.9242L105.308 72.0416L105.467 72.1517L105.627 72.2545L105.787 72.3498L105.947 72.4375L106.106 72.5175L106.266 72.5898L106.426 72.6544L106.586 72.7111L106.746 72.7599L106.905 72.8008L107.065 72.8337L107.225 72.8586L107.385 72.8755L107.545 72.8844L107.704 72.8852L107.864 72.8779L108.024 72.8626L108.184 72.8393L108.344 72.808L108.503 72.7686L108.663 72.7214L108.823 72.6662L108.983 72.6032L109.143 72.5324L109.302 72.4539L109.462 72.3677L109.622 72.2739L109.782 72.1726L109.942 72.0639L110.101 71.9479L110.261 71.8247L110.421 71.6944L110.581 71.5572L110.741 71.413L110.9 71.2622L111.06 71.1047L111.22 70.9408L111.38 70.7707L111.539 70.5943L111.699 70.412L111.859 70.2239L112.019 70.0301L112.179 69.8308L112.338 69.6262L112.498 69.4165L112.658 69.2019L112.818 68.9825L112.978 68.7586L113.137 68.5304L113.297 68.298L113.457 68.0618L113.617 67.8218L113.777 67.5783L113.936 67.3315L114.096 67.0817L114.256 66.8291L114.416 66.5739L114.576 66.3163L114.735 66.0565L114.895 65.7949L115.055 65.5316L115.215 65.2669L115.375 65.0009L115.534 64.734L115.694 64.4664L115.854 64.1984L116.014 63.9301L116.173 63.6618L116.333 63.3937L116.493 63.1262L116.653 62.8594L116.813 62.5935L116.972 62.3289L117.132 62.0657L117.292 61.8042L117.452 61.5446L117.612 61.2872L117.771 61.0322L117.931 60.7798L118.091 60.5302L118.251 60.2837L118.411 60.0405L118.57 59.8009L118.73 59.5649L118.89 59.3329L119.05 59.105L119.21 58.8815L119.369 58.6625L119.529 58.4483L119.689 58.239L119.849 58.0348L120.009 57.836L120.168 57.6427L120.328 57.455L120.488 57.2732L120.648 57.0973L120.808 56.9277L120.967 56.7643L121.127 56.6074L121.287 56.4571L121.447 56.3135L121.607 56.1768L121.766 56.0471L121.926 55.9245L122.086 55.8091L122.246 55.701L122.405 55.6004L122.565 55.5072L122.725 55.4216L122.885 55.3437L123.045 55.2736L123.204 55.2112L123.364 55.1567L123.524 55.1101L123.684 55.0714L123.844 55.0408L124.003 55.0181L124.163 55.0035H137.092" stroke="#F97316" stroke-width="4"/>
<line x1="6.96191" y1="75.4694" x2="137.039" y2="75.4694" stroke="#F97316" stroke-width="2" stroke-dasharray="8 8"/>
</svg>
