<svg width="329" height="28" viewBox="0 0 329 28" fill="none" xmlns="http://www.w3.org/2000/svg">
<g clip-path="url(#clip0_110_2)">
<path d="M24.2782 0.327641V5.01291H5.11121V11.0415H22.0175V15.6285H5.11121V23.2953H0V0.327641H24.2782Z" fill="white"/>
<path d="M53.831 8.84632C53.831 10.7466 53.405 12.3193 52.5532 13.5644C51.7013 14.8094 50.5873 15.7595 49.2112 16.4148L53.6999 23.2953H47.5402L43.9034 17.365H32.436V23.2953H27.3248V0.327641H44.6898C46.1751 0.327641 47.6058 0.611597 48.9819 1.17951C50.3798 1.72558 51.5375 2.64297 52.4549 3.9317C53.3723 5.19858 53.831 6.83678 53.831 8.84632ZM43.2481 12.778C44.3403 12.778 45.2577 12.7125 46.0003 12.5814C46.743 12.4504 47.3764 12.1009 47.9007 11.533C48.4467 10.9432 48.7198 10.0477 48.7198 8.84632C48.7198 7.66681 48.4467 6.7931 47.9007 6.22519C47.3546 5.65727 46.6993 5.29687 45.9348 5.14397C45.1922 4.99107 44.2966 4.91462 43.2481 4.91462H32.436V12.778H43.2481Z" fill="white"/>
<path d="M62.9107 18.4462L60.3224 23.2953H54.2938L66.6458 0.327641H73.8867L86.2388 23.2953H80.2102L77.6218 18.4462H62.9107ZM70.4792 5.14397H70.0205L65.3353 13.9248H75.1973L70.4792 5.14397Z" fill="white"/>
<path d="M123.543 23.2953H118.432V7.20811L108.504 23.2953H104.114L94.2847 7.27364V23.2953H89.1735V0.327641H96.1522L106.342 16.9391L116.532 0.327641H123.543V23.2953Z" fill="white"/>
<path d="M151.28 0.327641V4.78356H131.851V9.63266H150.133V13.9903H131.851V18.8394H151.28V23.2953H126.739V0.327641H151.28Z" fill="white"/>
<path d="M169.419 23.6229C166.055 23.6229 163.281 23.3936 161.097 22.9349C158.934 22.4544 157.263 21.6025 156.084 20.3793C154.926 19.1561 154.347 17.4524 154.347 15.2681H160.016C160.016 16.2073 160.3 16.95 160.868 17.496C161.435 18.0421 162.418 18.4462 163.816 18.7083C165.236 18.9704 167.213 19.1015 169.747 19.1015C171.844 19.1015 173.504 19.0141 174.727 18.8394C175.95 18.6646 176.835 18.3916 177.381 18.0203C177.927 17.6489 178.2 17.1466 178.2 16.5131C178.2 15.8142 177.96 15.3009 177.479 14.9732C177.02 14.6456 176.179 14.4053 174.956 14.2524C173.733 14.0777 171.745 13.9248 168.993 13.7937C165.564 13.6408 162.855 13.3241 160.868 12.8435C158.88 12.363 157.416 11.6313 156.477 10.6483C155.56 9.66542 155.101 8.32209 155.101 6.61836C155.101 4.21565 156.248 2.52284 158.541 1.53991C160.835 0.535147 164.242 0.0327637 168.764 0.0327637C173.285 0.0327637 176.725 0.666204 179.084 1.93308C181.465 3.17812 182.656 5.18765 182.656 7.96168H177.02C177.02 7.04429 176.714 6.34532 176.103 5.86478C175.513 5.3624 174.585 5.01291 173.318 4.81633C172.051 4.61974 170.315 4.52145 168.108 4.52145C166.121 4.52145 164.581 4.5979 163.489 4.7508C162.418 4.9037 161.654 5.15489 161.195 5.50437C160.758 5.83202 160.54 6.30164 160.54 6.91323C160.54 7.54667 160.769 8.02721 161.228 8.35485C161.687 8.66065 162.495 8.90092 163.652 9.07567C164.81 9.25041 166.59 9.40331 168.993 9.53436C172.641 9.73095 175.426 9.99306 177.348 10.3207C179.292 10.6483 180.821 11.2709 181.935 12.1883C183.071 13.0838 183.639 14.4599 183.639 16.3165C183.639 18.2605 183.06 19.7677 181.902 20.838C180.744 21.9083 179.139 22.64 177.086 23.0332C175.033 23.4264 172.477 23.6229 169.419 23.6229Z" fill="#F97316"/>
<path d="M201.518 16.0544V23.2953H196.21V16.0544L183.301 0.327641H189.657L198.864 11.4674L208.071 0.327641H214.427L201.518 16.0544Z" fill="#F97316"/>
<path d="M246.549 23.2953H239.505L222.206 5.86478V23.2953H217.094V0.327641H224.204L241.438 17.6599V0.327641H246.549V23.2953Z" fill="#F97316"/>
<path d="M263.855 23.6229C259.05 23.6229 255.435 22.5963 253.01 20.5431C250.585 18.4681 249.373 15.563 249.373 11.8279C249.373 7.98353 250.575 5.0566 252.977 3.04706C255.402 1.01569 259.028 0 263.855 0C268.595 0 272.166 0.884631 274.569 2.65389C276.993 4.40132 278.326 6.86955 278.566 10.0586H273.16C272.92 8.42038 272.046 7.0989 270.539 6.09413C269.054 5.06752 266.913 4.55421 264.117 4.55421C260.906 4.55421 258.514 5.14397 256.942 6.32348C255.391 7.50299 254.615 9.33778 254.615 11.8279C254.615 14.2961 255.413 16.12 257.007 17.2995C258.602 18.479 260.972 19.0687 264.117 19.0687C266.935 19.0687 269.086 18.5882 270.572 17.6271C272.079 16.666 272.942 15.3773 273.16 13.7609H278.599C278.337 16.8189 276.993 19.2325 274.569 21.0018C272.144 22.7492 268.573 23.6229 263.855 23.6229Z" fill="#F97316"/>
<path d="M282.371 23.2953C281.912 23.2953 281.552 23.2079 281.29 23.0332C281.039 22.8584 280.913 22.5253 280.913 22.0339C280.913 21.5643 281.039 21.2475 281.29 21.0837C281.552 20.909 281.912 20.8216 282.371 20.8216C282.83 20.8216 283.19 20.909 283.452 21.0837C283.725 21.2475 283.862 21.5643 283.862 22.0339C283.862 22.5253 283.731 22.8584 283.469 23.0332C283.207 23.2079 282.841 23.2953 282.371 23.2953Z" fill="#F97316"/>
<path d="M285.529 13.7937H289.068L292.77 16.9227L296.456 13.7937H299.978L294.621 18.5445L299.978 23.2953H296.456L292.77 20.1663L289.068 23.2953H285.529L290.903 18.5445L285.529 13.7937Z" fill="#F97316"/>
<path d="M309.36 24.4912C308.913 25.3103 308.476 25.9219 308.05 26.326C307.635 26.7301 307.132 27.0086 306.543 27.1615C305.953 27.3144 305.156 27.3908 304.151 27.3908H302.676V25.2284H303.43C304.271 25.2284 304.91 25.1792 305.347 25.0809C305.784 24.9827 306.139 24.8024 306.412 24.5403C306.685 24.2782 306.963 23.8632 307.247 23.2953H306.264L300.727 13.7937H303.807L308.115 21.1656L311.998 13.7937H315.078L309.36 24.4912Z" fill="#F97316"/>
<path d="M323.99 15.9561H316.52V13.7937H328.266V15.9561L320.78 21.1165H328.266V23.2953H316.52V21.1165L323.99 15.9561Z" fill="#F97316"/>
</g>
<defs>
<clipPath id="clip0_110_2">
<rect width="329" height="28" fill="white"/>
</clipPath>
</defs>
</svg>
