<svg width="144" height="144" viewBox="0 0 144 144" fill="none" xmlns="http://www.w3.org/2000/svg">
<g clip-path="url(#clip0_53_131)">
<path d="M16.8857 79.7012L17.0682 80.1637L17.2507 80.6255L17.4331 81.0866L17.6156 81.5469L17.7981 82.0064L17.9805 82.4649L18.163 82.9226L18.3455 83.3792L18.5279 83.8349L18.7104 84.2894L18.8929 84.7429L19.0753 85.1952L19.2578 85.6463L19.4403 86.0962L19.6227 86.5448L19.8052 86.992L19.9877 87.4379L20.1701 87.8823L20.3526 88.3252L20.5351 88.7667L20.7175 89.2066L20.9 89.6448L21.0824 90.0815L21.2649 90.5164L21.4474 90.9496L21.6298 91.3811L21.8123 91.8107L21.9948 92.2384L22.1772 92.6643L22.3597 93.0882L22.5422 93.5101L22.7246 93.9299L22.9071 94.3477L23.0896 94.7634L23.272 95.1769L23.4545 95.5883L23.637 95.9973L23.8194 96.4041L24.0019 96.8086L24.1844 97.2107L24.3668 97.6104L24.5493 98.0077L24.7318 98.4025L24.9142 98.7947L25.0967 99.1844L25.2792 99.5715L25.4616 99.956L25.6441 100.338L25.8266 100.717L26.009 101.093L26.1915 101.467L26.3739 101.837L26.5564 102.205L26.7389 102.57L26.9213 102.932L27.1038 103.291L27.2863 103.647L27.4687 104L27.6512 104.35L27.8337 104.697L28.0161 105.04L28.1986 105.381L28.3811 105.718L28.5635 106.052L28.746 106.382L28.9285 106.71L29.1109 107.034L29.2934 107.354L29.4759 107.672L29.6583 107.985L29.8408 108.296L30.0233 108.602L30.2057 108.905L30.3882 109.205L30.5707 109.501L30.7531 109.793L30.9356 110.082L31.118 110.367L31.3005 110.649L31.483 110.926L31.6654 111.2L31.8479 111.47L32.0304 111.736L32.2128 111.998L32.3953 112.257L32.5778 112.511L32.7602 112.762L32.9427 113.008L33.1252 113.251L33.3076 113.49L33.4901 113.724L33.6726 113.955L33.855 114.181L34.0375 114.404L34.22 114.622L34.4024 114.836L34.5849 115.046L34.7674 115.252L34.9498 115.453L35.1323 115.651L35.3148 115.844L35.4972 116.032L35.6797 116.217L35.8622 116.397L36.0446 116.573L36.2271 116.745L36.4095 116.912L36.592 117.075L36.7745 117.233L36.9569 117.387L37.1394 117.537L37.3219 117.682L37.5043 117.823L37.6868 117.959L37.8693 118.091L38.0517 118.218L38.2342 118.341L38.4167 118.459L38.5991 118.573L38.7816 118.682L38.9641 118.787L39.1465 118.887L39.329 118.982L39.5115 119.073L39.6939 119.159L39.8764 119.241L40.0589 119.318L40.2413 119.391L40.4238 119.459L40.6063 119.522L40.7887 119.581L40.9712 119.635L41.1537 119.684L41.3361 119.729L41.5186 119.769L41.701 119.804L41.8835 119.835L42.066 119.861L42.2484 119.882L42.4309 119.899L42.6134 119.911L42.7958 119.919L42.9783 119.921L43.1608 119.919L43.3432 119.913L43.5257 119.901L43.7082 119.885L43.8906 119.865L44.0731 119.839L44.2556 119.809L44.438 119.775L44.6205 119.735L44.803 119.692L44.9854 119.643L45.1679 119.59L45.3504 119.532L45.5328 119.469L45.7153 119.402L45.8978 119.33L46.0802 119.254L46.2627 119.173L46.4451 119.087L46.6276 118.997L46.8101 118.902L46.9925 118.803L47.175 118.699L47.3575 118.59L47.5399 118.477L47.7224 118.36L47.9049 118.238L48.0873 118.111L48.2698 117.98L48.4523 117.845L48.6347 117.705L48.8172 117.56L48.9997 117.411L49.1821 117.258L49.3646 117.1L49.5471 116.938L49.7295 116.772L49.912 116.601L50.0945 116.426L50.2769 116.246L50.4594 116.062L50.6419 115.874L50.8243 115.682L51.0068 115.485L51.1893 115.284L51.3717 115.079L51.5542 114.87L51.7366 114.656L51.9191 114.439L52.1016 114.217L52.284 113.991L52.4665 113.761L52.649 113.527L52.8314 113.289L53.0139 113.047L53.1964 112.801L53.3788 112.551L53.5613 112.298L53.7438 112.04L53.9262 111.778L54.1087 111.513L54.2912 111.243L54.4736 110.97L54.6561 110.693L54.8386 110.412L55.021 110.128L55.2035 109.84L55.386 109.548L55.5684 109.252L55.7509 108.953L55.9334 108.651L56.1158 108.345L56.2983 108.035L56.4807 107.722L56.6632 107.405L56.8457 107.085L57.0281 106.762L57.2106 106.435L57.3931 106.105L57.5755 105.771L57.758 105.435L57.9405 105.095L58.1229 104.752L58.3054 104.405L58.4879 104.056L58.6703 103.704L58.8528 103.348L59.0353 102.989L59.2177 102.628L59.4002 102.263L59.5827 101.896L59.7651 101.526L59.9476 101.153L60.1301 100.777L60.3125 100.398L60.495 100.017L60.6775 99.6329L60.8599 99.2463L61.0424 98.857L61.2248 98.4651L61.4073 98.0707L61.5898 97.6739L61.7722 97.2745L61.9547 96.8728L62.1372 96.4687L62.3196 96.0623L62.5021 95.6536L62.6846 95.2426L62.867 94.8294L63.0495 94.4141L63.232 93.9966L63.4144 93.5771L63.5969 93.1555L63.7794 92.7319L63.9618 92.3064L64.1443 91.8789L64.3268 91.4496L64.5092 91.0185L64.6917 90.5855L64.8742 90.1509L65.0566 89.7145L65.2391 89.2765L65.4216 88.8368L65.604 88.3956L65.7865 87.9529L65.969 87.5087L66.1514 87.0631L66.3339 86.6161L66.5164 86.1677L66.6988 85.7181L66.8813 85.2672L67.0638 84.815L67.2462 84.3617L67.4287 83.9073L67.6111 83.4519L67.7936 82.9954L67.9761 82.5379L68.1585 82.0795L68.341 81.6201L68.5235 81.16L68.7059 80.699L68.8884 80.2373L69.0709 79.7749L69.2533 79.3118L69.4358 78.8481L69.6183 78.3839L69.8007 77.9191L69.9832 77.4539L70.1657 76.9882L70.3481 76.5221L70.5306 76.0558L70.7131 75.5891L70.8955 75.1222L71.078 74.6551L71.2605 74.1878L71.4429 73.7204L71.6254 73.253L71.8078 72.7856L71.9903 72.3182L72.1728 71.8509L72.3552 71.3837L72.5377 70.9168L72.7202 70.45L72.9026 69.9835L73.0851 69.5173L73.2676 69.0515L73.45 68.5862L73.6325 68.1212L73.815 67.6568L73.9974 67.1929L74.1799 66.7297L74.3624 66.267L74.5448 65.8051L74.7273 65.3439L74.9098 64.8835L75.0922 64.4239L75.2747 63.9652L75.4572 63.5074L75.6396 63.0506L75.8221 62.5948L76.0046 62.14L76.187 61.6864L76.3695 61.2339L76.552 60.7826L76.7344 60.3325L76.9169 59.8837L77.0993 59.4363L77.2818 58.9902L77.4643 58.5455L77.6467 58.1023L77.8292 57.6607L78.0117 57.2205L78.1941 56.782L78.3766 56.3451L78.5591 55.9099L78.7415 55.4764L78.924 55.0447L79.1065 54.6148L79.2889 54.1867L79.4714 53.7606L79.6539 53.3364L79.8363 52.9141L80.0188 52.4939L80.2013 52.0758L80.3837 51.6598L80.5662 51.2459L80.7487 50.8342L80.9311 50.4248L81.1136 50.0176L81.2961 49.6128L81.4785 49.2103L81.661 48.8102L81.8435 48.4125L82.0259 48.0174L82.2084 47.6247L82.3908 47.2346L82.5733 46.8471L82.7558 46.4622L82.9382 46.08L83.1207 45.7005L83.3032 45.3237L83.4856 44.9498L83.6681 44.5786L83.8506 44.2103L84.033 43.845L84.2155 43.4825L84.398 43.123L84.5804 42.7665L84.7629 42.4131L84.9454 42.0627L85.1278 41.7155L85.3103 41.3714L85.4928 41.0305L85.6752 40.6928L85.8577 40.3583L86.0402 40.0271L86.2226 39.6993L86.4051 39.3747L86.5876 39.0536L86.77 38.7359L86.9525 38.4216L87.1349 38.1108L87.3174 37.8035L87.4999 37.4998L87.6824 37.1996L87.8648 36.903L88.0473 36.61L88.2298 36.3207L88.4122 36.0351L88.5947 35.7532L88.7771 35.475L88.9596 35.2006L89.1421 34.93L89.3245 34.6632L89.507 34.4003L89.6895 34.1413L89.8719 33.8861L90.0544 33.6349L90.2369 33.3877L90.4193 33.1444L90.6018 32.9051L90.7843 32.6699L90.9667 32.4387L91.1492 32.2116L91.3317 31.9885L91.5141 31.7696L91.6966 31.5549L91.8791 31.3443L92.0615 31.1379L92.244 30.9356L92.4265 30.7376L92.6089 30.5439L92.7914 30.3544L92.9738 30.1692L93.1563 29.9883L93.3388 29.8117L93.5212 29.6395L93.7037 29.4716L93.8862 29.3081L94.0686 29.149L94.2511 28.9942L94.4336 28.8439L94.616 28.698L94.7985 28.5566L94.981 28.4196L95.1634 28.2871L95.3459 28.1591L95.5284 28.0356L95.7108 27.9167L95.8933 27.8022L96.0758 27.6923L96.2582 27.5869L96.4407 27.4861L96.6232 27.3898L96.8056 27.2982L96.9881 27.2111L97.1706 27.1286L97.353 27.0507L97.5355 26.9775L97.7179 26.9088L97.9004 26.8448L98.0829 26.7854L98.2653 26.7307L98.4478 26.6806L98.6303 26.6351L98.8127 26.5943L98.9952 26.5582L99.1777 26.5267L99.3601 26.4999L99.5426 26.4778L99.7251 26.4603L99.9075 26.4475L100.09 26.4394L100.272 26.4359L100.455 26.4371L100.637 26.443L100.82 26.4536L101.002 26.4688L101.185 26.4887L101.367 26.5133L101.55 26.5426L101.732 26.5765L101.915 26.6151L102.097 26.6583L102.28 26.7062L102.462 26.7587L102.645 26.8159L102.827 26.8777L103.009 26.9441L103.192 27.0152L103.374 27.0908L103.557 27.1711L103.739 27.256L103.922 27.3455L104.104 27.4395L104.287 27.5382L104.469 27.6414L104.652 27.7491L104.834 27.8614L105.017 27.9782L105.199 28.0996L105.382 28.2254L105.564 28.3558L105.746 28.4906L105.929 28.6299L106.111 28.7737L106.294 28.9219L106.476 29.0745L106.659 29.2315L106.841 29.3929L107.024 29.5587L107.206 29.7289L107.389 29.9034L107.571 30.0822L107.754 30.2654L107.936 30.4528L108.118 30.6445L108.301 30.8405L108.483 31.0407L108.666 31.2451L108.848 31.4537L109.031 31.6665L109.213 31.8834L109.396 32.1045L109.578 32.3297L109.761 32.5589L109.943 32.7922L110.126 33.0296L110.308 33.2709L110.491 33.5163L110.673 33.7656L110.855 34.0189L111.038 34.2761L111.22 34.5371L111.403 34.8021L111.585 35.0708L111.768 35.3434L111.95 35.6198L112.133 35.8999L112.315 36.1838L112.498 36.4713L112.68 36.7625L112.863 37.0574L113.045 37.3559L113.228 37.6579L113.41 37.9635L113.592 38.2727L113.775 38.5853L113.957 38.9014L114.14 39.2209L114.322 39.5438L114.505 39.87L114.687 40.1996L114.87 40.5325L115.052 40.8687L115.235 41.2081L115.417 41.5507L115.6 41.8964L115.782 42.2453L115.964 42.5973L116.147 42.9523L116.329 43.3104L116.512 43.6714L116.694 44.0354L116.877 44.4023L117.059 44.7721L117.242 45.1447L117.424 45.5201L117.607 45.8983L117.789 46.2792L117.972 46.6629L118.154 47.0491L118.337 47.438L118.519 47.8294L118.701 48.2234L118.884 48.6199L119.066 49.0188L119.249 49.4202L119.431 49.8239L119.614 50.23L119.796 50.6383L119.979 51.0489L120.161 51.4618L120.344 51.8768L120.526 52.2939L120.709 52.7131L120.891 53.1344L121.074 53.5576L121.256 53.9829L121.438 54.41L121.621 54.839L121.803 55.2699L121.986 55.7025L122.168 56.1369L122.351 56.573L122.533 57.0108L122.716 57.4502L122.898 57.8911L123.081 58.3336L123.263 58.7776L123.446 59.223L123.628 59.6698L123.811 60.1179L123.993 60.5674L124.175 61.0181L124.358 61.47L124.54 61.9231L124.723 62.3773L124.905 62.8327L125.088 63.289L125.27 63.7463L125.453 64.2046C126.068 65.9769 126.311 66.6596 126.311 66.6596" stroke="#F97316" stroke-width="6"/>
<line x1="7.36133" y1="73.4482" x2="137.438" y2="73.4482" stroke="#F97316" stroke-width="2" stroke-dasharray="8 8"/>
</g>
<defs>
<clipPath id="clip0_53_131">
<rect width="144" height="144" fill="white"/>
</clipPath>
</defs>
</svg>
