<svg width="144" height="144" viewBox="0 0 144 144" fill="none" xmlns="http://www.w3.org/2000/svg">
<path fill-rule="evenodd" clip-rule="evenodd" d="M72.0576 29.9767H70.5576V31.4767V73.5857H70.555V114.205H23.8447V79.3028H20.8447V115.705V117.205H22.3447H72.055H73.555V115.705V73.596H73.5576V32.9767H120.268V66.9783H123.268V31.4767V29.9767H121.768H72.0576Z" fill="#F97316"/>
<path d="M70.5576 29.9767V28.7267H69.3076V29.9767H70.5576ZM70.5576 73.5857V74.8357H71.8076V73.5857H70.5576ZM70.555 73.5857V72.3357H69.305V73.5857H70.555ZM70.555 114.205V115.455H71.805V114.205H70.555ZM23.8447 114.205H22.5947V115.455H23.8447V114.205ZM23.8447 79.3028H25.0947V78.0528H23.8447V79.3028ZM20.8447 79.3028V78.0528H19.5947V79.3028H20.8447ZM20.8447 117.205H19.5947V118.455H20.8447V117.205ZM73.555 117.205V118.455H74.805V117.205H73.555ZM73.555 73.596V72.346H72.305V73.596H73.555ZM73.5576 73.596V74.846H74.8076V73.596H73.5576ZM73.5576 32.9767V31.7267H72.3076V32.9767H73.5576ZM120.268 32.9767H121.518V31.7267H120.268V32.9767ZM120.268 66.9783H119.018V68.2283H120.268V66.9783ZM123.268 66.9783V68.2283H124.518V66.9783H123.268ZM123.268 29.9767H124.518V28.7267H123.268V29.9767ZM70.5576 31.2267H72.0576V28.7267H70.5576V31.2267ZM71.8076 31.4767V29.9767H69.3076V31.4767H71.8076ZM71.8076 73.5857V31.4767H69.3076V73.5857H71.8076ZM70.555 74.8357H70.5576V72.3357H70.555V74.8357ZM71.805 114.205V73.5857H69.305V114.205H71.805ZM23.8447 115.455H70.555V112.955H23.8447V115.455ZM22.5947 79.3028V114.205H25.0947V79.3028H22.5947ZM20.8447 80.5528H23.8447V78.0528H20.8447V80.5528ZM22.0947 115.705V79.3028H19.5947V115.705H22.0947ZM22.0947 117.205V115.705H19.5947V117.205H22.0947ZM22.3447 115.955H20.8447V118.455H22.3447V115.955ZM72.055 115.955H22.3447V118.455H72.055V115.955ZM73.555 115.955H72.055V118.455H73.555V115.955ZM72.305 115.705V117.205H74.805V115.705H72.305ZM72.305 73.596V115.705H74.805V73.596H72.305ZM73.5576 72.346H73.555V74.846H73.5576V72.346ZM72.3076 32.9767V73.596H74.8076V32.9767H72.3076ZM120.268 31.7267H73.5576V34.2267H120.268V31.7267ZM121.518 66.9783V32.9767H119.018V66.9783H121.518ZM123.268 65.7283H120.268V68.2283H123.268V65.7283ZM122.018 31.4767V66.9783H124.518V31.4767H122.018ZM122.018 29.9767V31.4767H124.518V29.9767H122.018ZM121.768 31.2267H123.268V28.7267H121.768V31.2267ZM72.0576 31.2267H121.768V28.7267H72.0576V31.2267Z" fill="#F97316"/>
<line x1="7.00537" y1="73.1872" x2="137.082" y2="73.1872" stroke="#F97316" stroke-width="2" stroke-dasharray="8 8"/>
</svg>
